<svg width="16" height="17" viewBox="0 0 16 17" fill="none" xmlns="http://www.w3.org/2000/svg">
<path d="M7.99998 2.08081C9.81131 2.08081 10.0373 2.08746 10.748 2.12072C11.458 2.15397 11.9413 2.26504 12.3666 2.42999C12.8066 2.59893 13.1773 2.82772 13.548 3.19686C13.887 3.52934 14.1493 3.93153 14.3166 4.37543C14.4813 4.7991 14.5933 5.28197 14.6266 5.9903C14.658 6.69931 14.6666 6.92478 14.6666 8.73187C14.6666 10.539 14.66 10.7644 14.6266 11.4734C14.5933 12.1818 14.4813 12.664 14.3166 13.0883C14.1498 13.5325 13.8874 13.9347 13.548 14.2669C13.2146 14.605 12.8115 14.8666 12.3666 15.0337C11.942 15.198 11.458 15.3098 10.748 15.343C10.0373 15.3743 9.81131 15.3829 7.99998 15.3829C6.18865 15.3829 5.96265 15.3763 5.25198 15.343C4.54198 15.3098 4.05865 15.198 3.63331 15.0337C3.1882 14.8671 2.785 14.6054 2.45198 14.2669C2.11292 13.9345 1.8506 13.5323 1.68331 13.0883C1.51798 12.6646 1.40665 12.1818 1.37331 11.4734C1.34198 10.7644 1.33331 10.539 1.33331 8.73187C1.33331 6.92478 1.33998 6.69931 1.37331 5.9903C1.40665 5.2813 1.51798 4.79976 1.68331 4.37543C1.85014 3.93125 2.11252 3.52896 2.45198 3.19686C2.78509 2.85847 3.18827 2.59675 3.63331 2.42999C4.05865 2.26504 4.54131 2.15397 5.25198 2.12072C5.96265 2.08946 6.18865 2.08081 7.99998 2.08081ZM7.99998 5.40634C7.11592 5.40634 6.26808 5.75671 5.64296 6.38036C5.01784 7.00402 4.66665 7.84988 4.66665 8.73187C4.66665 9.61385 5.01784 10.4597 5.64296 11.0834C6.26808 11.707 7.11592 12.0574 7.99998 12.0574C8.88403 12.0574 9.73188 11.707 10.357 11.0834C10.9821 10.4597 11.3333 9.61385 11.3333 8.73187C11.3333 7.84988 10.9821 7.00402 10.357 6.38036C9.73188 5.75671 8.88403 5.40634 7.99998 5.40634ZM12.3333 5.24006C12.3333 5.01957 12.2455 4.8081 12.0892 4.65219C11.933 4.49627 11.721 4.40868 11.5 4.40868C11.279 4.40868 11.067 4.49627 10.9107 4.65219C10.7544 4.8081 10.6666 5.01957 10.6666 5.24006C10.6666 5.46056 10.7544 5.67203 10.9107 5.82794C11.067 5.98385 11.279 6.07145 11.5 6.07145C11.721 6.07145 11.933 5.98385 12.0892 5.82794C12.2455 5.67203 12.3333 5.46056 12.3333 5.24006ZM7.99998 6.73655C8.53041 6.73655 9.03912 6.94677 9.41419 7.32097C9.78927 7.69516 9.99998 8.20268 9.99998 8.73187C9.99998 9.26106 9.78927 9.76858 9.41419 10.1428C9.03912 10.517 8.53041 10.7272 7.99998 10.7272C7.46955 10.7272 6.96084 10.517 6.58577 10.1428C6.21069 9.76858 5.99998 9.26106 5.99998 8.73187C5.99998 8.20268 6.21069 7.69516 6.58577 7.32097C6.96084 6.94677 7.46955 6.73655 7.99998 6.73655Z" fill="white"/>
</svg>
