<svg width="16" height="17" viewBox="0 0 16 17" fill="none" xmlns="http://www.w3.org/2000/svg">
<path d="M14.7743 4.61984C14.2654 4.84444 13.7256 4.99195 13.173 5.05748C13.7555 4.70992 14.1915 4.16292 14.3997 3.51843C13.853 3.843 13.2537 4.07046 12.629 4.19351C12.2094 3.74561 11.6532 3.44857 11.047 3.34855C10.4407 3.24853 9.8183 3.35115 9.27651 3.64044C8.73473 3.92974 8.30393 4.3895 8.05108 4.94827C7.79823 5.50703 7.7375 6.13348 7.87834 6.73022C6.76974 6.67479 5.68522 6.38738 4.69519 5.88665C3.70516 5.38591 2.83175 4.68306 2.13167 3.82371C1.88386 4.24835 1.75364 4.73107 1.75434 5.22243C1.75434 6.18683 2.24634 7.03883 2.99434 7.53766C2.55167 7.52376 2.11876 7.40449 1.73167 7.18981V7.2244C1.7318 7.86669 1.95458 8.48917 2.36223 8.9863C2.76989 9.48343 3.33732 9.82461 3.96834 9.952C3.55741 10.0631 3.12654 10.0795 2.70834 9.99988C2.88625 10.5527 3.23301 11.0363 3.70006 11.3827C4.16712 11.7292 4.73109 11.9212 5.313 11.932C4.73466 12.3852 4.07245 12.7202 3.36426 12.9178C2.65606 13.1155 1.91575 13.1719 1.18567 13.084C2.46013 13.9017 3.94373 14.3358 5.459 14.3344C10.5877 14.3344 13.3923 10.0957 13.3923 6.41962C13.3923 6.2999 13.389 6.17885 13.3837 6.06046C13.9296 5.66683 14.4007 5.17921 14.775 4.62051L14.7743 4.61984Z" fill="white"/>
</svg>
