<svg width="16" height="17" viewBox="0 0 16 17" fill="none" xmlns="http://www.w3.org/2000/svg">
<g clip-path="url(#clip0)">
<path d="M7.94464 11.1224C7.90694 10.9222 7.76145 10.7635 7.56487 10.7081C7.36829 10.6527 7.16098 10.7122 7.02384 10.8631L4.17428 14.0012C4.07035 14.1157 4.01898 14.2696 4.03357 14.4234C4.04806 14.5775 4.1275 14.7196 4.25143 14.8131C5.36927 15.6559 6.69406 16.0991 8.09114 16.0991C8.13609 16.0991 8.18131 16.0986 8.22626 16.0977C8.38963 16.0943 8.54237 16.0198 8.64529 15.8935C8.74803 15.7673 8.78968 15.6032 8.75959 15.4435L7.94464 11.1224Z" fill="white"/>
<path d="M6.88173 8.01181C6.9852 8.12602 7.13005 8.18715 7.27792 8.18715C7.34864 8.18715 7.42001 8.17315 7.4878 8.14423C7.69741 8.05473 7.82712 7.84223 7.81051 7.61536L7.37286 1.64598C7.36222 1.49973 7.29195 1.36136 7.18032 1.26609C7.06721 1.16972 6.92374 1.12378 6.7756 1.13595C5.34183 1.25593 3.97585 1.86544 2.92929 2.85208C2.71262 3.05644 2.69931 3.40228 2.89975 3.62329L6.88173 8.01181Z" fill="white"/>
<path d="M14.0829 10.559C13.9862 10.4337 13.84 10.3558 13.6816 10.3452L9.40091 10.0605C9.19754 10.0472 9.00757 10.1475 8.90455 10.3226C8.80154 10.4979 8.80649 10.7126 8.91749 10.8828L11.2716 14.494C11.3587 14.6277 11.4995 14.7172 11.6578 14.7397C11.6837 14.7433 11.7096 14.7452 11.7354 14.7452C11.8678 14.7452 11.9967 14.6978 12.0982 14.6102C13.1919 13.6667 13.9146 12.4189 14.1883 11.0014C14.2183 10.8458 14.1799 10.6846 14.0829 10.559Z" fill="white"/>
<path d="M9.21661 9.12593C9.26092 9.12593 9.30568 9.12053 9.34999 9.10919L13.5536 8.04027C13.7102 8.00055 13.8411 7.89476 13.9127 7.75016C13.9845 7.60538 13.9893 7.43717 13.9259 7.28837C13.3599 5.96119 12.3901 4.89309 11.1211 4.19976C10.983 4.12426 10.8187 4.11108 10.6704 4.16334C10.5222 4.21541 10.403 4.32843 10.343 4.4733L8.72419 8.38968C8.64668 8.57711 8.68145 8.78879 8.81464 8.94208C8.91784 9.06077 9.06434 9.12593 9.21661 9.12593Z" fill="white"/>
<path d="M6.72027 9.71952C6.72862 9.5212 6.6268 9.33597 6.4548 9.2364L2.89084 7.1726C2.75168 7.09225 2.58482 7.07605 2.43273 7.12831C2.28046 7.18075 2.15873 7.29642 2.09883 7.44569C1.56229 8.78312 1.49413 10.2209 1.90161 11.6038C1.94738 11.7592 2.05865 11.8863 2.20671 11.9524C2.27881 11.9847 2.35595 12.0009 2.43301 12.0009C2.51391 12.0009 2.59464 11.9831 2.66968 11.9477L6.41517 10.1789C6.59506 10.094 6.71193 9.91793 6.72027 9.71952Z" fill="white"/>
</g>
<defs>
<clipPath id="clip0">
<rect width="16" height="15.9625" fill="white" transform="translate(-0.00012207 0.64209)"/>
</clipPath>
</defs>
</svg>
